<svg width="62" height="52" viewBox="0 0 62 52" fill="none" xmlns="http://www.w3.org/2000/svg">
<path d="M3.30038 6.70968C5.12313 6.70968 6.60076 5.20767 6.60076 3.35484C6.60076 1.50201 5.12313 0 3.30038 0C1.47763 0 0 1.50201 0 3.35484C0 5.20767 1.47763 6.70968 3.30038 6.70968Z" transform="translate(15.5996 6.70898)" fill="#FF4451"/>
<path d="M3.30038 6.70968C5.12313 6.70968 6.60076 5.20767 6.60076 3.35484C6.60076 1.50201 5.12313 0 3.30038 0C1.47763 0 0 1.50201 0 3.35484C0 5.20767 1.47763 6.70968 3.30038 6.70968Z" transform="translate(39.8008 6.70898)" fill="#FF4451"/>
<path d="M58.5425 37.5822V33.0691C58.5425 28.8356 55.1635 25.4409 51.038 25.4409H48.602V22.3656H32.493V20.169H42.6299C48.0913 20.169 52.5311 15.6559 52.5311 10.1045C52.5311 4.553 48.052 0 42.5906 0H19.4094C13.948 0 9.46895 4.51306 9.46895 10.0645C9.46895 15.616 13.9087 20.129 19.3701 20.129H29.507V22.3656H13.398V25.4009H10.962C6.79721 25.4009 3.45754 28.8356 3.45754 33.0292V37.5422C1.45374 38.2212 0 40.0983 0 42.3349C0 45.0906 2.20025 47.3272 4.91128 47.3272V44.3318C3.85044 44.3318 2.94677 43.4532 2.94677 42.3349C2.94677 41.2166 3.81115 40.3379 4.91128 40.3379C6.01141 40.3379 6.87579 41.2166 6.87579 42.3349H9.82256C9.82256 40.0983 8.36882 38.2212 6.40431 37.5822V33.0691C6.40431 30.5131 8.4474 28.4363 10.962 28.4363H13.398V44.2519C13.398 48.5253 16.8162 52 21.0203 52H40.9797C45.1838 52 48.602 48.5253 48.602 44.2519V28.3963H51.038C53.5526 28.3963 55.5957 30.4731 55.5957 33.0292V37.5422C53.5919 38.1813 52.1774 40.0584 52.1774 42.2949H55.1242C55.1242 41.2166 55.9886 40.298 57.0887 40.298C58.1888 40.298 59.0532 41.1767 59.0532 42.2949C59.0532 43.4132 58.1888 44.2919 57.0887 44.2919V47.2873C59.7997 47.2873 62 45.0507 62 42.2949C62 40.0983 60.5463 38.2212 58.5425 37.5822ZM12.4157 10.0645C12.4157 6.15054 15.5589 2.95545 19.4094 2.95545H42.5906C46.4411 2.95545 49.5843 6.15054 49.5843 10.0645C49.5843 13.9785 46.4411 17.1736 42.5906 17.1736H19.4094C15.5589 17.1736 12.4157 13.9785 12.4157 10.0645ZM45.616 44.212C45.616 46.808 43.5336 48.9647 40.9404 48.9647H21.0203C18.4664 48.9647 16.3447 46.8479 16.3447 44.212V25.361H45.616V44.212Z" fill="#FF4451"/>
</svg>
